<?xml version="1.0" encoding="utf-8" ?><svg xmlns="http://www.w3.org/2000/svg" xmlns:xlink="http://www.w3.org/1999/xlink" width="1408" height="1101" viewBox="0 0 1408 1101"><path fill="#9E72DA" transform="scale(1 0.999706)" d="M526.88 239.75C552.84 237.12 592.75 246.776 613.719 262.1C643.381 283.777 675.542 308.866 703.105 333.046C722.252 318.48 740.681 302.204 759.815 287.489C777.862 273.045 795.1 258.518 816.866 249.882C885.557 222.627 963.873 250.784 995.159 319.345C1040.34 418.362 953.815 529.244 846.908 510.029C804.314 502.373 784.323 482.978 753.125 456.196C730.781 464.328 724.052 471.931 709.321 489.135C707.485 486.09 706.991 485.032 705.695 481.74C710.976 458.315 707.556 435.126 708.059 411.305C708.234 402.988 707.003 387.381 711.781 380.456C724.215 362.435 745.486 347.635 766.709 342.285C774.114 340.453 793.358 336.091 799.876 339.949C801.184 342.68 801.365 348.344 801.297 351.415C800.746 376.621 801.69 401.831 801.067 427.038C800.942 432.115 800.848 438.23 801.53 443.219C857.611 497.839 949.287 469.478 964.334 392.841C974.509 341.015 939.004 289.246 886.635 280.593C881.112 279.224 871.603 279.225 865.896 279.336C836.138 279.915 814.087 295.424 792.048 313.547C786.156 318.392 778.935 324.77 772.44 328.693C767.965 331.397 759.756 331.213 754.528 332.646C730.737 339.164 719.561 349.548 703.712 366.592C687.612 348.213 674.749 337.262 650.316 331.927C645.666 330.912 635.726 329.51 632.193 327.105C626.75 323.072 620.171 318.496 615.194 314.007C574.708 277.492 522.453 264.317 476.227 301.443C407.856 356.355 443.883 464.323 530.254 471.317C561.047 473.811 583.499 462.712 606.134 443.219C604.426 410.397 605.844 372.438 605.561 339.029C641.407 336.225 675.272 351.46 696.696 380.556C698.168 382.554 699.117 383.787 699.289 386.383C701.222 415.469 698.058 444.74 699.768 473.842C700.077 479.093 700.684 483.131 699.824 488.371C695.436 485.212 693.336 481.231 689.861 477.188C680.808 466.659 668.803 460.764 655.826 456.539C642.982 465.482 631.75 475.784 619.412 485.217C567.322 525.043 494.142 519.789 445.491 477.137C389.278 427.858 383.205 339.455 433.973 284.112C458.717 257.138 490.053 241.522 526.88 239.75Z"/><path fill="#9E72DA" transform="scale(1 0.999706)" d="M513.767 637.256C527.322 620.812 555.75 624.358 559.103 645.826C561.428 660.703 560.263 681.276 560.179 696.657L538.523 696.649C538.508 687.421 541.103 653.88 535.034 647.775C533.504 646.236 531.581 645.433 529.419 645.382C526.615 645.316 523.691 646.338 521.676 648.318C515.099 654.783 517.656 683.805 517.715 693.127C517.718 693.913 517.54 695.103 517.448 695.92C514.236 697.711 500.879 696.795 496.25 696.781C495.866 687.71 498.238 653.601 493.218 648.277C491.498 646.452 489.267 645.549 486.764 645.532C484.013 645.512 481.484 646.431 479.527 648.39C477.474 650.445 476.451 653.144 475.907 655.947C474.181 664.838 475.588 686.505 475.573 696.833L453.912 696.946L453.756 628.494L471.381 628.408L472.557 637.447C478.602 630.897 480.979 629.174 489.917 627.151C501.144 626.523 507.012 628.115 513.767 637.256Z"/><path fill="#9E72DA" transform="scale(1 0.999706)" d="M362.925 627.121C374.204 626.58 379.67 628.51 386.608 637.46C402.011 617.421 433.813 626.476 432.599 654.312C432.019 667.601 432.618 683.244 432.524 696.758L411.264 696.841C411.248 688.658 413.123 653.6 408.576 648.61C406.841 646.706 404.514 645.631 401.934 645.587C398.999 645.537 396.19 646.414 394.11 648.549C387.686 655.142 390.264 680.884 390.299 690.377L390.349 696.573L368.579 696.649C368.408 686.72 371.351 654.565 365.361 647.979C363.815 646.279 361.864 645.375 359.557 645.361C356.792 645.344 353.976 646.462 352.013 648.412C349.868 650.542 348.807 653.33 348.235 656.244C346.49 665.144 348.113 686.691 348.255 696.735L326.502 696.911L326.077 628.728L344.304 628.379C344.401 631.216 344.827 634.134 345.183 636.96C351.501 630.792 354.055 628.937 362.925 627.121Z"/><path fill="#9E72DA" transform="scale(1 0.999706)" d="M183.56 600.355C198.737 598.728 212.911 601.758 225.762 609.932C223.487 615.033 219.853 621.629 217.239 626.721C202.486 620.273 182.765 613.772 170.887 629.731C162.063 642.203 163.741 665.492 176.714 674.611C185.828 681.017 196.618 679.253 206.681 677.517C206.264 673.584 206.466 666.432 206.478 662.235L191.444 662.118C191.672 656.762 191.617 650.764 191.689 645.353C195.859 644.963 201.417 645.022 205.734 644.959C212.889 644.897 220.102 644.973 227.261 645C227.678 659.309 227.333 675.582 227.491 690.077C207.053 699.19 182.283 703.228 162.25 690.261C139.784 675.719 136.235 640.298 150.606 618.919C158.609 607.014 170.046 602.712 183.56 600.355Z"/><path fill="#9E72DA" transform="scale(1 0.999706)" d="M483.754 745.916C499.146 745.87 536.712 743.232 546.254 752.602C567.715 773.677 556.523 804.99 526.109 808.399C519.438 808.549 512.644 808.555 505.96 808.629L505.888 839.31L483.987 839.281C483.67 809.209 483.224 775.767 483.754 745.916ZM505.987 791.067C514.147 790.853 524.108 792.008 530.511 787.362C534.918 781.229 537.632 772.612 530.342 767.512C523.542 762.756 513.716 763.89 505.787 764.1C505.831 772.969 505.755 782.23 505.987 791.067Z"/><path fill="#9E72DA" transform="scale(1 0.999706)" d="M721.269 600.34C736.649 598.996 747.647 601.547 760.855 609.39L752.289 626.35C743.625 622.248 729.606 615.38 720.096 621.519C718.003 622.871 716.481 624.497 716.014 627.039C718.346 637.907 746.017 639.609 754.375 648.537C759.243 652.933 763.279 658.792 763.478 665.843C764.13 688.849 747.263 696.875 728.214 698.285C712.016 697.709 703.83 695.379 690.758 685.687L700.765 669.059C711.057 675.903 729.701 686.074 739.28 674.194C748.659 662.564 713.267 656.025 707.17 651.278C697.493 643.743 693.072 638.477 694.496 625.561C696.224 609.888 707.293 603.368 721.269 600.34Z"/><path fill="#9E72DA" transform="scale(1 0.999706)" d="M656.015 770.178C675.659 766.783 694.323 779.997 697.65 799.654C700.977 819.311 687.701 837.931 668.034 841.191C648.462 844.436 629.954 831.237 626.642 811.675C623.331 792.112 636.466 773.557 656.015 770.178ZM663.42 824.252C667.774 823.249 671.352 821.975 673.551 817.88C679.985 805.901 677.6 788.527 661.775 787.288C657.289 788.307 652.919 789.898 650.848 794.194C644.647 807.057 647.184 823.257 663.42 824.252Z"/><path fill="#9E72DA" transform="scale(1 0.999706)" d="M1117.54 627.176C1124.09 626.56 1133.64 627.322 1138.84 630.113C1158.17 640.484 1149.65 660.877 1153.22 677.388C1153.64 679.341 1155.81 679.907 1157.67 680.76L1157.69 697.039C1148.05 697.334 1139.5 699.659 1135.62 688.842C1124.34 698.244 1112.82 701.741 1099.02 695.201C1093.77 691.515 1090.24 687.409 1089.62 680.769C1087.42 657.135 1115.02 655.576 1131.79 654.308C1128.04 636.904 1111.86 644.392 1100.55 649.484C1098.19 644.726 1095.91 639.901 1093.62 635.106C1102.26 629.668 1107.7 628.58 1117.54 627.176ZM1113.31 682.517C1120.35 684.263 1129.35 683.27 1131.3 674.502C1131.73 672.595 1131.53 668.84 1131.52 666.776L1130.49 666.381C1122.95 667.516 1102.13 670.414 1113.31 682.517Z"/><path fill="#9E72DA" transform="scale(1 0.999706)" d="M603.969 627.173C641.232 624.776 638.57 648.216 639.052 676.346C639.083 678.139 641.946 679.435 643.392 680.376C644.659 683.194 644.153 693.241 644.133 696.901C639.86 697.083 635.077 697.342 630.819 697.163C624.576 696.9 625.832 693.683 622.442 689.851C617.384 689.338 609.232 704.614 586.951 695.979C576.02 689.641 572.402 675.904 580.761 665.763C588.466 656.416 606.563 655.14 618.141 654.24C614.888 636.74 598.667 644.488 587.311 649.001C584.848 644.444 582.445 639.627 580.061 635.009C589.455 629.623 593.601 628.696 603.969 627.173ZM600.039 682.362C613.808 685.912 618.391 679.39 618.152 666.782C617.548 666.513 617.497 666.363 616.984 666.41C609.561 667.342 588.914 670.59 600.039 682.362Z"/><path fill="#9E72DA" transform="scale(1 0.999706)" d="M273.583 627.175C302.368 625.075 310.465 642.834 309.599 668.258C294.504 668.238 279.107 668.062 264.04 668.461C270.411 686.506 284.646 683.627 298.884 676.668L302.394 681.157L307.479 688.339C272.436 717.58 225.127 680.885 249.499 640.66C254.507 632.396 264.545 628.71 273.583 627.175ZM264.212 655.825L280.156 655.806C282.746 655.839 288.257 656.311 290.15 655.104C290.881 653.716 291.683 652.554 290.791 651.01C286.718 643.96 282.222 642.454 275.006 642.915C267.423 646.204 266.757 648.288 264.212 655.825Z"/><path fill="#9E72DA" transform="scale(1 0.999706)" d="M779.786 628.694C786.411 628.211 794.911 628.389 801.678 628.348C801.877 642.025 800.601 656.642 802.151 670.117C803.826 684.671 825.225 682.375 826.148 668.429C827.01 655.409 826.44 641.945 826.46 628.834C833.416 628.475 840.67 628.511 847.656 628.447L847.707 661.672C847.718 666.006 847.183 673.592 848.022 677.849C848.228 678.894 850.803 679.48 852.082 679.939C852.632 682.243 852.323 694.008 852.315 696.993C845.293 696.973 839.103 696.87 832.076 696.485L829.623 687.195L829.156 687.666C813.919 702.776 785.904 703.058 781.044 678.913C778.277 665.166 779.773 643.195 779.786 628.694Z"/><path fill="#9E72DA" transform="scale(1 0.999706)" d="M786.46 770.267C812.745 770.895 818.461 788.399 817.92 811.167L772.77 811.178C779.024 828.674 792.927 827.617 807.128 819.383L811.424 825.283L815.485 831.153C792.192 849.717 755.391 842.306 752.545 809.207C750.57 786.234 763.304 771.666 786.46 770.267ZM772.895 798.828L790.109 798.835L799.38 798.759C796.802 788.67 794.896 785.469 783.672 785.898C776.886 788.597 774.48 791.591 772.895 798.828Z"/><path fill="#9E72DA" transform="scale(1 0.999706)" d="M1214.37 627.122C1234.48 626.192 1243.73 636.376 1243.87 656.395C1243.97 669.775 1243.84 683.29 1243.91 696.678L1222.43 696.785C1222.22 681.244 1230.03 629.3 1200.18 649.307C1199.19 650.649 1197.55 652.887 1197.4 654.486C1196.17 667.984 1196.86 683.178 1196.89 696.65L1175.06 696.786C1174.87 674.295 1175.17 651.411 1175.26 628.884C1180.83 628.544 1187.58 628.621 1193.25 628.541C1193.41 631.503 1193.81 634.462 1194.18 637.408C1201.11 630.333 1205.04 628.776 1214.37 627.122Z"/><path fill="#9E72DA" transform="scale(1 0.999706)" d="M1058.72 628.591C1066.51 628.42 1073.7 628.419 1081.48 628.545C1080.01 633.129 1077.72 638.696 1075.96 643.276L1054.72 696.879C1047.14 696.55 1037.6 696.786 1029.86 696.789C1022.29 675.423 1011.67 649.386 1003.06 628.486L1026.63 628.417C1032.07 642.868 1038.98 663.376 1042.63 678.082C1047.63 661.519 1053.25 645.016 1058.72 628.591Z"/><path fill="#9E72DA" transform="scale(1 0.999706)" d="M928.063 752.303L928.34 752.501C929.15 754.622 928.782 768.716 928.763 771.977L944.387 771.698L944.427 788.131L928.807 788.22C928.897 796.963 925.895 816.923 933.009 822.385C935.683 824.439 940.295 822.841 943.305 821.954C944.929 826.907 946.436 832.561 947.902 837.615C943.489 839.467 941.587 839.859 936.99 840.848C900.648 842.375 907.308 815.018 907.52 788.243L897.144 788.136L897.194 772.004L907.531 771.919L907.573 756.804C914.259 755.631 921.407 753.838 928.063 752.303Z"/><path fill="#9E72DA" transform="scale(1 0.999706)" d="M865.796 770.269C876.021 770.568 881.693 772.188 889.77 778.24C887.498 782.457 883.8 787.948 881.163 792.103C878.447 790.725 875.795 789.645 872.903 788.757C849.363 781.521 843.079 817.698 863.688 823.48C869.647 825.152 876.085 821.581 880.995 818.426L889.74 829.796L890.06 830.277C890.316 837.107 874.175 840.37 869.035 840.974C835.017 844.968 817.845 806.164 838.318 781.137C845.15 772.786 855.714 770.781 865.796 770.269Z"/><path fill="#9E72DA" transform="scale(1 0.999706)" d="M887.135 596.285C888.147 596.077 889.506 596.19 890.568 596.221C892.01 600.487 890.23 661.833 891.036 670.758C891.25 673.13 891.288 676.591 893.28 678.445C895.498 680.511 899.345 679.632 902.439 679.294C902.965 685.033 903.281 690.912 903.65 696.673C897.588 698.085 894.589 698.337 888.545 698.27C879.43 697.135 872.377 693.147 870.806 683.551C869.024 672.663 869.606 660.543 869.602 649.489L869.547 598.263C874.636 597.385 881.854 596.837 887.135 596.285Z"/><path fill="#9E72DA" transform="scale(1 0.999706)" d="M935.973 596.281C937.263 596.033 938.053 596.196 939.342 596.329C940.175 599.187 939.836 611.766 939.849 615.57C939.916 634.426 939.584 653.306 939.906 672.158C940.043 680.134 945.039 680.253 951.335 679.472L952.26 696.562C946.287 698.12 943.185 698.362 937.193 698.333C913.504 694.928 918.389 668.83 918.412 650.476L918.447 598.307C923.537 597.407 930.692 596.844 935.973 596.281Z"/><path fill="#9E72DA" transform="scale(1 0.999706)" d="M726.741 771.694C729.688 771.596 732.903 771.662 735.873 771.663C736.268 794.42 735.616 817.382 735.755 840.168C735.873 859.357 725.644 866.589 707.726 866.016C705.119 865.667 701.632 864.772 698.986 864.172L702.356 847.564C705.942 848.263 709.079 849.374 712.231 847.053C716.291 841.381 715.063 822.77 715.047 815.55L715.024 772.01C718.818 771.832 722.921 771.794 726.741 771.694Z"/><path fill="#9E72DA" transform="scale(1 0.999706)" d="M606.683 770.764C611.838 770.506 614.017 770.812 618.976 771.662L615.836 790.859C601.445 789.44 593.442 793.052 593.614 809.031C593.722 819.096 593.884 829.334 593.952 839.407L573.288 839.393L572.201 839.159C571.691 836.605 571.947 821.474 571.955 818.131L571.891 772.013L589.831 772.049C590.506 775.315 591.098 780.517 591.586 783.961C595.93 776.34 598.344 773.411 606.683 770.764Z"/><path fill="#9E72DA" transform="scale(1 0.999706)" d="M967.993 628.39L989.419 628.28C989.809 650.799 989.353 674.093 989.54 696.736L967.755 696.799L967.993 628.39Z"/><path fill="#9E72DA" transform="scale(1 0.999706)" d="M974.137 596.404C980.448 593.8 987.674 596.816 990.262 603.135C992.85 609.453 989.815 616.672 983.491 619.243C977.189 621.806 970.003 618.784 967.425 612.489C964.847 606.194 967.849 598.999 974.137 596.404Z"/><path fill="#9E72DA" transform="scale(1 0.999706)" d="M724.052 739.155C730.576 738.408 736.487 743.047 737.314 749.562C738.14 756.077 733.574 762.045 727.07 762.951C722.792 763.547 718.524 761.796 715.896 758.367C713.269 754.938 712.688 750.361 714.376 746.384C716.064 742.408 719.76 739.646 724.052 739.155Z"/></svg>