<?xml version="1.0" encoding="UTF-8" standalone="no"?>
<!DOCTYPE svg PUBLIC "-//W3C//DTD SVG 1.1//EN" "http://www.w3.org/Graphics/SVG/1.1/DTD/svg11.dtd">
<svg width="100%" height="100%" viewBox="0 0 609 274" version="1.1" xmlns="http://www.w3.org/2000/svg" xmlns:xlink="http://www.w3.org/1999/xlink" xml:space="preserve" xmlns:serif="http://www.serif.com/" style="fill-rule:evenodd;clip-rule:evenodd;stroke-linejoin:round;stroke-miterlimit:2;">
    <g transform="matrix(1,0,0,1,-206.925,-238.663)">
        <path d="M334.88,239.75C360.84,237.12 400.75,246.776 421.719,262.1C451.381,283.777 483.542,308.866 511.105,333.046C530.252,318.48 548.681,302.204 567.815,287.489C585.862,273.045 603.1,258.518 624.866,249.882C693.557,222.627 771.873,250.784 803.159,319.345C848.341,418.362 761.815,529.244 654.908,510.029C612.314,502.373 592.323,482.978 561.125,456.196C538.781,464.328 531.503,472.383 516.772,489.587C514.936,486.542 515.556,435.126 516.059,411.305C516.234,402.988 515.003,387.381 519.781,380.456C532.215,362.435 553.486,347.635 574.709,342.285C582.114,340.453 601.358,336.091 607.876,339.949C609.184,342.68 609.365,348.344 609.297,351.415C608.746,376.621 609.69,401.831 609.067,427.038C608.942,432.115 608.848,438.23 609.53,443.219C665.611,497.839 757.287,469.478 772.334,392.841C782.509,341.015 747.004,289.246 694.635,280.593C689.112,279.224 679.603,279.225 673.896,279.336C644.138,279.915 622.087,295.424 600.048,313.547C594.156,318.392 586.935,324.77 580.44,328.693C575.965,331.397 567.756,331.213 562.528,332.646C538.737,339.164 527.561,349.548 511.712,366.592C495.612,348.213 482.749,337.262 458.316,331.927C453.666,330.912 443.726,329.51 440.193,327.105C434.75,323.072 428.171,318.496 423.194,314.007C382.708,277.492 330.453,264.317 284.227,301.443C215.856,356.355 251.883,464.323 338.254,471.317C369.047,473.811 391.499,462.712 414.134,443.219C412.426,410.397 413.844,372.438 413.561,339.029C449.407,336.225 483.272,351.46 504.696,380.556C506.168,382.554 507.117,383.787 507.289,386.383C509.222,415.469 506.058,444.74 507.768,473.842C508.077,479.093 508.684,483.131 507.824,488.371C503.436,485.212 501.336,481.231 497.861,477.188C488.808,466.659 476.803,460.764 463.826,456.539C450.982,465.482 439.75,475.784 427.412,485.217C375.322,525.043 302.142,519.789 253.491,477.137C197.278,427.858 191.205,339.455 241.973,284.112C266.717,257.138 298.053,241.522 334.88,239.75Z" style="fill:rgb(158,114,218);fill-rule:nonzero;"/>
    </g>
</svg>
